<?xml version="1.0" encoding="utf-8"?>
<!-- Generator: Adobe Illustrator 22.1.0, SVG Export Plug-In . SVG Version: 6.00 Build 0)  -->
<svg version="1.1" xmlns="http://www.w3.org/2000/svg" xmlns:xlink="http://www.w3.org/1999/xlink" x="0px" y="0px"
	 viewBox="0 0 132.6 63.2" style="enable-background:new 0 0 132.6 63.2;" xml:space="preserve">
<style type="text/css">
	.st0{fill:#27348B;}
	.st1{display:none;}
	.st2{display:inline;}
</style>
<g id="Artwork">
	<path class="st0" d="M65.8,20.2c-0.9,1.4-2.6,2.4-4.5,2.4c-3.1,0-5.4-2.5-5.4-5.5c0-3.1,2.3-5.5,5.4-5.5c1.9,0,3.5,0.9,4.5,2.3
		l-1.9,1.3c-0.6-0.8-1.5-1.4-2.6-1.4c-1.8,0-3.1,1.5-3.1,3.4c0,1.9,1.3,3.4,3.1,3.4c1.1,0,2.1-0.6,2.7-1.5L65.8,20.2z"/>
	<path class="st0" d="M68.8,22.4h-2.2V11.2h2.2v5.1c0.3-0.9,1.4-1.3,2-1.3c1.9,0,2.9,1.3,2.9,3.5v4c-0.4,0-1.8,0-2.2,0v-3.9
		c0-1-0.7-1.5-1.3-1.5c-0.7,0-1.5,0.4-1.5,1.5V22.4z"/>
	<path class="st0" d="M80.6,21.6c-0.5,0.7-1.6,1-2.1,1c-1.9,0-3.7-1.5-3.7-3.8s1.9-3.8,3.7-3.8c0.5,0,1.6,0.2,2.1,1v-0.8h2.2v7.3
		h-2.2V21.6z M78.8,20.5c0.9,0,1.8-0.6,1.8-1.7c0-1.1-0.9-1.7-1.8-1.7c-0.9,0-1.8,0.7-1.8,1.7C77,19.8,77.9,20.5,78.8,20.5z"/>
	<path class="st0" d="M86.2,22.4h-2.2v-7.3h2.2v1.8c0.4-1.4,1.3-1.9,2.1-1.9c0.5,0,0.9,0.1,1.2,0.3l-0.4,1.9
		C88.8,17,88.4,17,88.1,17c-1.2,0-1.8,1-1.8,2.9V22.4z"/>
	<path class="st0" d="M95,15.1v1.7h-1.5v5.6h-2.2v-5.6H90v-1.7h1.3v-2.8h2.2v2.8H95z"/>
	<path class="st0" d="M102.5,21.1c-0.7,1.1-2.1,1.5-3.3,1.5c-2.1,0-3.8-1.5-3.8-3.8c0-2.3,1.7-3.8,3.8-3.8c2.1,0,3.7,1.5,3.7,3.8
		c0,0.2,0,0.5,0,0.7h-5.3c0.1,0.8,1,1.2,1.8,1.2c0.6,0,1.2-0.2,1.6-0.7L102.5,21.1z M100.7,18.1c-0.1-0.9-0.9-1.2-1.5-1.2
		c-0.6,0-1.4,0.3-1.6,1.2H100.7z"/>
	<path class="st0" d="M106.1,22.4h-2.2v-7.3h2.2v1.8c0.4-1.4,1.3-1.9,2.1-1.9c0.5,0,0.9,0.1,1.2,0.3l-0.4,1.9
		c-0.4-0.2-0.8-0.2-1.1-0.2c-1.2,0-1.8,1-1.8,2.9V22.4z"/>
	<path class="st0" d="M116.6,21.1c-0.7,1.1-2.1,1.5-3.3,1.5c-2.1,0-3.8-1.5-3.8-3.8c0-2.3,1.7-3.8,3.8-3.8c2.1,0,3.7,1.5,3.7,3.8
		c0,0.2,0,0.5,0,0.7h-5.3c0.1,0.8,1,1.2,1.8,1.2c0.6,0,1.2-0.2,1.6-0.7L116.6,21.1z M114.8,18.1c-0.1-0.9-0.9-1.2-1.5-1.2
		c-0.6,0-1.4,0.3-1.6,1.2H114.8z"/>
	<path class="st0" d="M123.5,22.4v-0.9c-0.4,0.7-1.2,1.1-2.1,1.1c-1.9,0-3.5-1.5-3.5-3.8c0-2.3,1.7-3.8,3.5-3.8c0.9,0,1.8,0.4,2.1,1
		v-4.8h2.2v11.2H123.5z M121.8,17c-0.9,0-1.7,0.7-1.7,1.7c0,1.1,0.8,1.8,1.7,1.8c0.9,0,1.7-0.7,1.7-1.8
		C123.5,17.6,122.7,17,121.8,17z"/>
	<path class="st0" d="M59.2,26.3V37h-2.3V26.3H59.2z"/>
	<path class="st0" d="M62.8,37h-2.2v-7.3h2.2v1.1c0.4-0.7,1.2-1.2,2.1-1.2c1.6,0,2.7,1,2.7,3.1V37c-0.4,0-1.8,0-2.2,0v-3.9
		c0-1-0.5-1.5-1.3-1.5c-0.8,0-1.3,0.4-1.3,1.5V37z"/>
	<path class="st0" d="M70.8,34c-2.2-0.6-2.2-1.7-2.2-2.4c0-1.1,1.3-2.1,2.8-2.1c1.5,0,3,0.6,3,2.4h-2c0-0.5-0.5-0.6-0.8-0.6
		c-0.5,0-0.8,0.2-0.8,0.5c0,0.2,0.2,0.4,0.6,0.5l1.2,0.3c1.8,0.5,2,1.7,2,2.1c0,1.5-1.6,2.3-3.1,2.3c-1.5,0-3-0.9-3-2.5h2
		c0,0.4,0.5,0.8,1.1,0.8c0.5,0,0.9-0.2,0.9-0.6c0-0.3-0.2-0.5-0.7-0.6L70.8,34z"/>
	<path class="st0" d="M80.1,29.7v1.7h-1.5V37h-2.2v-5.6h-1.3v-1.7h1.3V27h2.2v2.8H80.1z"/>
	<path class="st0" d="M82.1,25.8c0.7,0,1.3,0.5,1.3,1.3c0,0.7-0.6,1.3-1.3,1.3c-0.7,0-1.4-0.6-1.4-1.3
		C80.7,26.3,81.4,25.8,82.1,25.8z M83.2,37H81v-7.3h2.2V37z"/>
	<path class="st0" d="M89.1,29.7v1.7h-1.5V37h-2.2v-5.6h-1.3v-1.7h1.3V27h2.2v2.8H89.1z"/>
	<path class="st0" d="M94.7,29.7h2.2V37h-2.2v-1c-0.4,0.7-1.2,1.2-1.9,1.2c-1.6,0-2.9-1-2.9-3.1v-4.4h2.2v3.9c0,1.2,0.8,1.5,1.3,1.5
		c0.7,0,1.3-0.4,1.3-1.5V29.7z"/>
	<path class="st0" d="M102.7,29.7v1.7h-1.5V37h-2.2v-5.6h-1.3v-1.7h1.3V27h2.2v2.8H102.7z"/>
	<path class="st0" d="M110.2,35.7c-0.7,1.1-2.1,1.5-3.3,1.5c-2.1,0-3.8-1.5-3.8-3.8c0-2.3,1.7-3.8,3.8-3.8c2.1,0,3.7,1.5,3.7,3.8
		c0,0.2,0,0.5,0,0.7h-5.3c0.1,0.8,1,1.2,1.8,1.2c0.6,0,1.2-0.2,1.6-0.7L110.2,35.7z M108.4,32.7c-0.1-0.9-0.9-1.2-1.5-1.2
		c-0.6,0-1.4,0.3-1.6,1.2H108.4z"/>
	<path class="st0" d="M114.1,33.4c0-2.3,1.7-3.8,3.8-3.8c2.1,0,3.8,1.5,3.8,3.8c0,2.3-1.7,3.8-3.8,3.8
		C115.8,37.2,114.1,35.7,114.1,33.4z M119.5,33.4c0-1-0.7-1.7-1.7-1.7c-0.9,0-1.6,0.7-1.6,1.7c0,1,0.7,1.7,1.6,1.7
		C118.7,35,119.5,34.4,119.5,33.4z"/>
	<path class="st0" d="M127.5,27.9h-0.8c-0.7,0-1.1,0.5-1.1,1.4v0.5h1.5v1.7h-1.5V37h-2.2v-5.6H122v-1.7h1.4v-0.5
		c0-2.2,1.2-3.5,3.3-3.5h0.8V27.9z"/>
	<path class="st0" d="M55.6,41.4h8.1v2.1h-2.9v8.7h-2.3v-8.7h-2.9V41.4z"/>
	<path class="st0" d="M68.5,51.3c-0.5,0.7-1.6,1-2.1,1c-1.9,0-3.7-1.5-3.7-3.8s1.9-3.8,3.7-3.8c0.5,0,1.6,0.2,2.1,1v-0.8h2.2v7.3
		h-2.2V51.3z M66.7,50.2c0.9,0,1.8-0.6,1.8-1.7s-0.9-1.7-1.8-1.7c-0.9,0-1.8,0.7-1.8,1.7S65.8,50.2,66.7,50.2z"/>
	<path class="st0" d="M72.2,44.8h2.5l1.1,1.6l1.1-1.6h2.5L77,48.2l2.9,3.9h-2.5l-1.5-2.2l-1.6,2.2h-2.5l2.9-3.9L72.2,44.8z"/>
	<path class="st0" d="M85.8,51.3c-0.5,0.7-1.6,1-2.1,1c-1.9,0-3.7-1.5-3.7-3.8s1.9-3.8,3.7-3.8c0.5,0,1.6,0.2,2.1,1v-0.8h2.2v7.3
		h-2.2V51.3z M84,50.2c0.9,0,1.8-0.6,1.8-1.7s-0.9-1.7-1.8-1.7c-0.9,0-1.8,0.7-1.8,1.7S83.1,50.2,84,50.2z"/>
	<path class="st0" d="M93.8,44.8v1.7h-1.5v5.6h-2.2v-5.6h-1.3v-1.7h1.3V42h2.2v2.8H93.8z"/>
	<path class="st0" d="M95.9,40.9c0.7,0,1.3,0.5,1.3,1.3c0,0.7-0.6,1.3-1.3,1.3c-0.7,0-1.4-0.6-1.4-1.3
		C94.6,41.4,95.2,40.9,95.9,40.9z M97,52.1h-2.2v-7.3H97V52.1z"/>
	<path class="st0" d="M97.9,48.4c0-2.3,1.7-3.8,3.8-3.8s3.8,1.5,3.8,3.8c0,2.3-1.7,3.8-3.8,3.8S97.9,50.7,97.9,48.4z M103.4,48.4
		c0-1-0.7-1.7-1.7-1.7c-0.9,0-1.6,0.7-1.6,1.7c0,1,0.7,1.7,1.6,1.7C102.6,50.1,103.4,49.5,103.4,48.4z"/>
	<path class="st0" d="M108.7,52.1h-2.2v-7.3h2.2v1.1c0.4-0.7,1.2-1.2,2.1-1.2c1.6,0,2.7,1,2.7,3.1v4.4c-0.4,0-1.8,0-2.2,0v-3.9
		c0-1-0.5-1.5-1.3-1.5c-0.8,0-1.3,0.4-1.3,1.5V52.1z"/>
	<path class="st0" d="M116.6,49.7c0.7,0,1.4,0.5,1.4,1.3c0,0.8-0.6,1.3-1.4,1.3c-0.7,0-1.3-0.5-1.3-1.3
		C115.3,50.2,115.9,49.7,116.6,49.7z"/>
	<path class="st0" d="M1.2,13.5C6.6,6.3,15.2,1.7,24.9,1.7c9,0,17.1,4,22.6,10.4c0.4,0.5,0.8,1,1.2,1.5l0,35.8
		c-5.4,7.2-14.1,11.8-23.8,11.8c-9.7,0-18.3-4.6-23.8-11.8L1.2,13.5z M39.2,31.4c0-7.9-6.4-14.3-14.3-14.3s-14.3,6.4-14.3,14.3
		S17,45.7,24.9,45.7S39.2,39.3,39.2,31.4z"/>
</g>
<g id="Safe_area__x28_guide_only_x29_" class="st1">
	<g class="st2">
		<path d="M263.7-78.2v166H-25.5v-166H263.7 M264.2-78.7H-26v167h290.2V-78.7L264.2-78.7z"/>
	</g>
</g>
</svg>
